<svg xmlns="http://www.w3.org/2000/svg" width="20px" height="20px" fill="none" viewBox="0 0 20 20">
  <g clip-path="url(#a)">
    <path fill="#4280EF" d="M10 0C4.486 0 0 4.486 0 10s4.486 10 10 10 10-4.486 10-10S15.514 0 10 0Zm5.167 8.76-3.689 3.62a3.32 3.32 0 0 1-2.333.96 3.32 3.32 0 0 1-2.313-.94l-1.583-1.557a.833.833 0 1 1 1.169-1.188l1.577 1.55a1.656 1.656 0 0 0 2.317-.014L14 7.57a.832.832 0 1 1 1.167 1.189Z"/>
  </g>
  <defs>
    <clipPath id="a">
      <path fill="#fff" d="M0 0h20v20H0z"/>
    </clipPath>
  </defs>
</svg>
