<svg xmlns="http://www.w3.org/2000/svg" width="25" height="25" fill="none" viewBox="0 0 25 25">
  <g clip-path="url(#a)">
    <path fill="currentColor" d="M24.695 24.695a1.039 1.039 0 0 1-1.473 0l-6.218-6.218a10.369 10.369 0 0 1-6.587 2.357C4.673 20.834 0 16.16 0 10.417S4.673 0 10.417 0c1.83 0 3.632.482 5.209 1.394a1.041 1.041 0 1 1-1.044 1.804 8.322 8.322 0 0 0-4.165-1.114c-4.595 0-8.334 3.738-8.334 8.333a8.25 8.25 0 0 0 .739 3.41l3.957-4.749a2.11 2.11 0 0 1 3.11-.14l2.009 2.008L21.08.354a1.042 1.042 0 0 1 1.577 1.363l-9.146 10.59a2.116 2.116 0 0 1-1.518.729 2.145 2.145 0 0 1-1.568-.617L8.417 10.41l-4.441 5.286a8.318 8.318 0 0 0 6.44 3.052c4.595 0 8.334-3.738 8.334-8.333 0-.156-.005-.312-.014-.466a1.043 1.043 0 0 1 .986-1.096c.57-.041 1.064.41 1.096.985a10.364 10.364 0 0 1-2.34 7.164l6.217 6.217a1.04 1.04 0 0 1 0 1.473v.002Z"/>
  </g>
  <defs>
    <clipPath id="a">
      <path fill="#fff" d="M0 0h25v25H0z"/>
    </clipPath>
  </defs>
</svg>
