<svg xmlns="http://www.w3.org/2000/svg" width="15" height="15" fill="none" viewBox="0 0 15 15">
  <path fill="currentColor" d="M11.875 2.5h-.688A3.131 3.131 0 0 0 8.126 0h-1.25a3.13 3.13 0 0 0-3.063 2.5h-.687A3.129 3.129 0 0 0 0 5.625v6.25A3.129 3.129 0 0 0 3.125 15h8.75A3.129 3.129 0 0 0 15 11.875v-6.25A3.129 3.129 0 0 0 11.875 2.5Zm-5-1.25h1.25a1.875 1.875 0 0 1 1.76 1.25h-4.77a1.875 1.875 0 0 1 1.76-1.25Zm-3.75 2.5h8.75a1.875 1.875 0 0 1 1.875 1.875V7.5H1.25V5.625A1.875 1.875 0 0 1 3.125 3.75Zm8.75 10h-8.75a1.875 1.875 0 0 1-1.875-1.875V8.75h5.625v.625a.625.625 0 0 0 1.25 0V8.75h5.625v3.125a1.875 1.875 0 0 1-1.875 1.875Z"/>
</svg>
