<svg xmlns="http://www.w3.org/2000/svg" width="1em" height="1em" fill="none" viewBox="0 0 45 45">
  <g clip-path="url(#a)">
    <path fill="#4280EF" d="M44.884 19.976 39.126 4.348a4.403 4.403 0 0 0-5.295-2.747l-9.456 2.522V1.875c-.011-2.452-3.739-2.45-3.75 0v3.248l-9.851 2.626a7.517 7.517 0 0 0-5.106 4.654L.116 27.476C.04 27.684 0 28.69 0 28.69c-.146 7.358 8.904 11.751 14.246 6.492a8.477 8.477 0 0 0 2.629-6.12s-.04-1.373-.113-1.58l-5.756-15.826c.233-.118.478-.214.735-.281l8.884-2.37V41.25H9.375c-2.452.011-2.45 3.739 0 3.75h26.25c2.453-.011 2.45-3.739 0-3.75h-11.25V8.003l9.18-2.45-5.314 14.421c-.077.209-.116 1.213-.116 1.213 0 4.7 3.508 8.564 7.987 8.798a8.365 8.365 0 0 0 6.26-2.304A8.477 8.477 0 0 0 45 21.56s-.04-1.378-.116-1.587v.002ZM12.322 26.25H4.564l3.905-10.6 3.854 10.6Zm24.24-18.013 3.874 10.513H32.69l3.873-10.513Z"/>
  </g>
  <defs>
    <clipPath id="a">
      <path fill="#fff" d="M0 0h45v45H0z"/>
    </clipPath>
  </defs>
</svg>
