<svg xmlns="http://www.w3.org/2000/svg" fill="none" viewBox="0 0 20 20">
  <g clip-path="url(#a)">
    <path fill="currentColor" d="M15.833.833H4.167A4.172 4.172 0 0 0 0 5v10a4.172 4.172 0 0 0 4.167 4.167h11.666A4.172 4.172 0 0 0 20 15V5A4.172 4.172 0 0 0 15.833.833ZM4.167 2.5h11.666a2.5 2.5 0 0 1 2.5 2.5v.833H1.667V5a2.5 2.5 0 0 1 2.5-2.5Zm11.666 15H4.167a2.5 2.5 0 0 1-2.5-2.5V7.5h16.666V15a2.5 2.5 0 0 1-2.5 2.5Zm0-6.667a.834.834 0 0 1-.833.834H5A.833.833 0 1 1 5 10h10a.833.833 0 0 1 .833.833ZM12.5 14.167a.833.833 0 0 1-.833.833H5a.833.833 0 1 1 0-1.667h6.667a.833.833 0 0 1 .833.834Zm-10-10a.833.833 0 1 1 1.667 0 .833.833 0 0 1-1.667 0Zm2.5 0a.833.833 0 1 1 1.667 0 .833.833 0 0 1-1.667 0Zm2.5 0a.833.833 0 1 1 1.667 0 .833.833 0 0 1-1.667 0Z"/>
  </g>
  <defs>
    <clipPath id="a">
      <path fill="#fff" d="M0 0h20v20H0z"/>
    </clipPath>
  </defs>
</svg>
