<svg xmlns="http://www.w3.org/2000/svg" width="15" height="15" fill="none" viewBox="0 0 15 15">
  <path fill="#4280EF" d="M11.875 1.25h-.625V.625a.625.625 0 1 0-1.25 0v.625H5V.625a.625.625 0 0 0-1.25 0v.625h-.625A3.129 3.129 0 0 0 0 4.375v7.5A3.129 3.129 0 0 0 3.125 15h8.75A3.129 3.129 0 0 0 15 11.875v-7.5a3.129 3.129 0 0 0-3.125-3.125ZM1.25 4.375A1.875 1.875 0 0 1 3.125 2.5h8.75a1.875 1.875 0 0 1 1.875 1.875V5H1.25v-.625Zm10.625 9.375h-8.75a1.875 1.875 0 0 1-1.875-1.875V6.25h12.5v5.625a1.875 1.875 0 0 1-1.875 1.875Z"/>
</svg>
