<svg xmlns="http://www.w3.org/2000/svg" width="20" height="20" fill="none" viewBox="0 0 20 20">
  <g clip-path="url(#a)">
    <path fill="currentColor" d="M18.333 5H12.5c-.92 0-1.667-.746-1.667-1.667V1.667C10.833.746 11.58 0 12.5 0h4.167A3.333 3.333 0 0 1 20 3.333C20 4.254 19.254 5 18.333 5Zm-12.5 1.667V3.333c0-.92-.745-1.666-1.666-1.666h-.834A3.333 3.333 0 0 0 0 5v1.667h5.833ZM6.667 20h6.666v-5H6.667v5ZM15 15v5h1.667A3.333 3.333 0 0 0 20 16.667V15h-5ZM5 15H0v1.667A3.333 3.333 0 0 0 3.333 20H5v-5Zm4.167-6.667H0v5h9.167v-5Zm1.666 0v5H20V10c0-.92-.746-1.667-1.667-1.667h-7.5Z"/>
  </g>
  <defs>
    <clipPath id="a">
      <path fill="currentColor" d="M0 0h20v20H0z"/>
    </clipPath>
  </defs>
</svg>
