<svg xmlns="http://www.w3.org/2000/svg" width="15" height="15" fill="none" viewBox="0 0 15 15">
  <path fill="#4280EF" d="M3.75 3.438a.938.938 0 1 1-1.876-.001.938.938 0 0 1 1.876 0ZM5.313 2.5a.938.938 0 1 0 0 1.876.938.938 0 0 0 0-1.876ZM15 3.75V7.5a.625.625 0 1 1-1.25 0V6.25H1.25v5c0 .572.256 1.106.703 1.464a.624.624 0 1 1-.781.975A3.111 3.111 0 0 1 0 11.25v-7.5A3.129 3.129 0 0 1 3.125.625h8.75A3.129 3.129 0 0 1 15 3.75ZM13.75 5V3.75a1.877 1.877 0 0 0-1.875-1.875h-8.75A1.877 1.877 0 0 0 1.25 3.75V5h12.5Zm.04 4.375c-.213 0-.412.151-.525.4l-.728 1.6-.727-1.6c-.113-.249-.312-.4-.526-.4-.322 0-.59.184-.617.625l-.278 3.839a.5.5 0 1 0 .997.072l.166-2.287.53 1.166a.5.5 0 0 0 .91 0l.53-1.166.166 2.287a.5.5 0 1 0 .998-.072L14.408 10c-.027-.44-.295-.625-.618-.625Zm-4.42 2.84c.016-.009.471 1.514.471 1.514a.5.5 0 0 1-.478.646h-.04a.5.5 0 0 1-.48-.36l-.44-1.515h-.49v1.375a.5.5 0 1 1-1 0v-3.563c0-.517.42-.937.938-.937h.542c.802 0 1.534.568 1.633 1.364a1.559 1.559 0 0 1-.654 1.476H9.37Zm-.332-1.277a.563.563 0 0 0-.563-.563h-.563V11.5h.563c.31 0 .563-.252.563-.563Zm-4.425-.552a.562.562 0 0 1 .608.286.5.5 0 1 0 .881-.473 1.563 1.563 0 0 0-1.425-.824c-.855.026-1.514.772-1.514 1.627v1.744c0 .856.659 1.602 1.514 1.628a1.562 1.562 0 0 0 1.426-.824.5.5 0 1 0-.881-.473.563.563 0 0 1-.609.286.577.577 0 0 1-.45-.574v-1.683c0-.42.183-.67.45-.721Z"/>
</svg>
