<svg xmlns="http://www.w3.org/2000/svg" width="25" height="25" fill="none" viewBox="0 0 25 25">
  <path fill="currentColor" d="M14.583 10.417a5.17 5.17 0 0 1-.866 2.868l-2.995-2.994a1.04 1.04 0 0 1-.305-.737v-4.24a5.209 5.209 0 0 1 4.166 5.103Zm-6.25-.432V5.314a5.214 5.214 0 0 0-4.09 6.007c.338 2.014 1.896 3.69 3.884 4.158a5.21 5.21 0 0 0 4.117-.72l-3.301-3.3a2.088 2.088 0 0 1-.61-1.474Zm11.459-4.777h-2.084a1.041 1.041 0 1 0 0 2.084h2.084a1.041 1.041 0 1 0 0-2.084Zm0 4.167h-2.084a1.041 1.041 0 1 0 0 2.083h2.084a1.041 1.041 0 1 0 0-2.083Zm0 4.167h-2.084a1.041 1.041 0 1 0 0 2.083h2.084a1.041 1.041 0 1 0 0-2.083ZM25 6.25v8.333a5.214 5.214 0 0 1-5.208 5.209h-6.25v2.083h4.166a1.041 1.041 0 1 1 0 2.083H7.292a1.041 1.041 0 1 1 0-2.083h4.166v-2.083h-6.25A5.214 5.214 0 0 1 0 14.583V6.25a5.214 5.214 0 0 1 5.208-5.208h14.584A5.214 5.214 0 0 1 25 6.25Zm-2.083 0a3.129 3.129 0 0 0-3.125-3.125H5.208A3.129 3.129 0 0 0 2.083 6.25v8.333a3.129 3.129 0 0 0 3.125 3.125h14.584a3.129 3.129 0 0 0 3.125-3.125V6.25Z"/>
</svg>
