<svg xmlns="http://www.w3.org/2000/svg" width="25" height="25" fill="none" viewBox="0 0 25 25">
  <g clip-path="url(#a)">
    <path fill="currentColor" d="M19.438 21.77a1.03 1.03 0 0 0-1.47.095 3.116 3.116 0 0 1-2.343 1.062H5.208a3.134 3.134 0 0 1-3.125-3.125V5.208a3.134 3.134 0 0 1 3.125-3.125h4.698c.167 0 .344 0 .51.021v5.188a3.134 3.134 0 0 0 3.126 3.125h6.052c.323 0 .625-.146.823-.407.198-.26.26-.583.187-.895a7.268 7.268 0 0 0-1.906-3.355l-3.625-3.625A7.25 7.25 0 0 0 9.917 0H5.208A5.21 5.21 0 0 0 0 5.208v14.584A5.21 5.21 0 0 0 5.208 25h10.417c1.49 0 2.917-.646 3.906-1.76a1.03 1.03 0 0 0-.093-1.47Zm-6.938-19c.396.23.76.511 1.094.845l3.625 3.625c.323.322.604.697.833 1.093h-4.52a1.045 1.045 0 0 1-1.042-1.041V2.77h.01Zm11.594 16.074-1.677 1.677a1.023 1.023 0 0 1-.74.302 1.07 1.07 0 0 1-.74-.302 1.037 1.037 0 0 1 0-1.469l1.344-1.344h-7.708a1.045 1.045 0 0 1-1.042-1.041c0-.573.469-1.042 1.042-1.042h7.708l-1.343-1.344a1.037 1.037 0 1 1 1.468-1.469l1.677 1.678a3.1 3.1 0 0 1 0 4.364l.01-.01Z"/>
  </g>
  <defs>
    <clipPath id="a">
      <path fill="#fff" d="M0 0h25v25H0z"/>
    </clipPath>
  </defs>
</svg>
