<svg xmlns="http://www.w3.org/2000/svg" width="20" height="20" fill="none" viewBox="0 0 20 20">
  <g clip-path="url(#a)">
    <path fill="currentColor" d="M15 17.5H4.167A4.168 4.168 0 0 1 0 13.333V7.5c0-.458.375-.833.833-.833.459 0 .834.375.834.833v5.833c0 1.375 1.125 2.5 2.5 2.5H15c.458 0 .833.375.833.834A.836.836 0 0 1 15 17.5Zm-3.333-10a.836.836 0 0 0-.834.833c0 .459.375.834.834.834a.836.836 0 0 0 .833-.834.836.836 0 0 0-.833-.833ZM20 5.833v5a3.332 3.332 0 0 1-3.333 3.334h-10a3.332 3.332 0 0 1-3.334-3.334v-5A3.332 3.332 0 0 1 6.667 2.5h10A3.332 3.332 0 0 1 20 5.833Zm-5.833 2.5c0-1.375-1.125-2.5-2.5-2.5a2.507 2.507 0 0 0-2.5 2.5c0 1.375 1.125 2.5 2.5 2.5s2.5-1.125 2.5-2.5Z"/>
  </g>
  <defs>
    <clipPath id="a">
      <path fill="currentColor" d="M0 0h20v20H0z"/>
    </clipPath>
  </defs>
</svg>
