<svg xmlns="http://www.w3.org/2000/svg" width="21" height="21" fill="none" viewBox="0 0 21 21">
  <g clip-path="url(#a)">
    <path fill="#4280EF" d="M17.47 6.667h-1.448a4.28 4.28 0 0 0 1.448-3.333.833.833 0 1 0-1.666 0c0 2.185-1.976 2.942-3.479 3.2a7.777 7.777 0 0 0 .979-3.2 2.5 2.5 0 0 0-5 0 7.777 7.777 0 0 0 .978 3.2c-1.502-.258-3.478-1.015-3.478-3.2a.833.833 0 0 0-1.667 0 4.281 4.281 0 0 0 1.448 3.333H4.137a3.333 3.333 0 0 0-3.333 3.334v.833a1.667 1.667 0 0 0 1.666 1.667v4.166a4.172 4.172 0 0 0 4.167 4.167h8.333a4.172 4.172 0 0 0 4.167-4.167v-4.166a1.667 1.667 0 0 0 1.667-1.667v-.833a3.333 3.333 0 0 0-3.334-3.334Zm-6.666-4.166a.833.833 0 0 1 .833.833c-.1.886-.384 1.74-.833 2.51a6.426 6.426 0 0 1-.834-2.51.833.833 0 0 1 .834-.833ZM2.47 10a1.667 1.667 0 0 1 1.667-1.667H9.97v2.5h-7.5V10Zm1.667 6.666V12.5H9.97v6.666H6.637a2.5 2.5 0 0 1-2.5-2.5Zm13.333 0a2.5 2.5 0 0 1-2.5 2.5h-3.333V12.5h5.833v4.166Zm-5.833-5.833v-2.5h5.833A1.667 1.667 0 0 1 19.137 10v.833h-7.5Z"/>
  </g>
  <defs>
    <clipPath id="a">
      <path fill="#fff" d="M.804.834h20v20h-20z"/>
    </clipPath>
  </defs>
</svg>
