<svg xmlns="http://www.w3.org/2000/svg" width="45" height="45" fill="none" viewBox="0 0 45 45">
  <g clip-path="url(#a)">
    <path fill="#4280EF" d="m22.605 21.02 15.073 12.597-10.676 8.008a7.5 7.5 0 0 1-9 0L6.502 33a5.63 5.63 0 0 0-3.374-1.125H1.877A1.876 1.876 0 0 1 0 30V9.257c0-.953.71-1.746 1.657-1.853 2.545-.283 4.836-1.305 7.18-2.67C12.208 3 16.63 3.62 19.367 6.182l1.157 1.112-7.513 7.333c-2.012 2.01-2.333 5.188-.747 7.384.975 1.355 2.74 2.36 4.583 2.36a5.581 5.581 0 0 0 3.945-1.618l1.813-1.734v.002ZM37.414 4.735c-3.169-1.584-7.122-1.171-9.953 1.028L15.643 17.297c-.696.697-.853 1.813-.34 2.526.338.468.828.75 1.386.796a1.857 1.857 0 0 0 1.478-.543l6.784-6.43c1.779-1.69 4.357 1.007 2.593 2.71l-2.215 2.056 16.112 13.465h1.682c1.035 0 1.875-.84 1.875-1.875V9.193c0-.919-.671-1.678-1.577-1.841-3.176-.574-6.01-2.616-6.01-2.616l.003-.002Z"/>
  </g>
  <defs>
    <clipPath id="a">
      <path fill="#fff" d="M0 0h45v45H0z"/>
    </clipPath>
  </defs>
</svg>
