<svg xmlns="http://www.w3.org/2000/svg" width="45" height="45" fill="none" viewBox="0 0 45 45">
  <g clip-path="url(#a)">
    <path fill="#4280EF" d="m31.472 4.639 2.316-3.77a1.87 1.87 0 0 1 2.578-.614 1.871 1.871 0 0 1 .615 2.578l-2.316 3.769a1.87 1.87 0 0 1-2.578.617 1.873 1.873 0 0 1-.615-2.58Zm-21.296 1.96a1.875 1.875 0 1 0 3.197-1.957L11.06.872a1.876 1.876 0 0 0-3.197 1.96L10.176 6.6Zm-4.1 4.14-3.37-1.613a1.868 1.868 0 0 0-2.5.88 1.872 1.872 0 0 0 .882 2.5l3.37 1.615a1.87 1.87 0 0 0 2.5-.88 1.875 1.875 0 0 0-.881-2.501Zm16.169-3.237C11.906 7.672 3.713 18.877 9.326 29.67c.853 1.639 2.119 3.011 3.478 4.262.516.474.915 1.061 1.257 1.691h6.564v-9.72c-2.177-.776-3.75-2.839-3.75-5.28 0-1.037.838-1.875 1.875-1.875s1.875.838 1.875 1.875a1.875 1.875 0 1 0 3.75 0 1.875 1.875 0 1 1 3.75 0c0 2.441-1.573 4.504-3.75 5.28v9.72h6.503a7.583 7.583 0 0 1 1.7-2.027c1.236-1.031 2.398-2.18 3.113-3.622 3.256-6.587 1.965-13.61-2.674-18.17C30.127 8.96 26.3 7.44 22.245 7.501Zm-7.26 32.394C14.835 42.645 16.894 45 19.646 45h5.665a4.687 4.687 0 0 0 4.687-4.688v-.937H14.964c0 .176.032.341.021.521ZM44.837 9.937A1.87 1.87 0 0 0 42.358 9l-3.622 1.635a1.871 1.871 0 0 0-.938 2.479 1.873 1.873 0 0 0 2.479.937l3.622-1.635a1.871 1.871 0 0 0 .938-2.479Z"/>
  </g>
  <defs>
    <clipPath id="a">
      <path fill="#fff" d="M0 0h45v45H0z"/>
    </clipPath>
  </defs>
</svg>
