<svg xmlns="http://www.w3.org/2000/svg" width="25" height="25" fill="none" viewBox="0 0 25 25">
  <g clip-path="url(#a)">
    <path fill="currentColor" d="M8.225 16.775a1.562 1.562 0 1 1 2.21-2.21c1.38 1.382 3.791 1.383 5.172 0l5.197-5.196a3.662 3.662 0 0 0 0-5.173 3.662 3.662 0 0 0-5.173 0 1.562 1.562 0 1 1-2.21-2.21 6.79 6.79 0 0 1 9.593 0 6.79 6.79 0 0 1 0 9.592l-5.197 5.197a6.76 6.76 0 0 1-4.796 1.983 6.763 6.763 0 0 1-4.796-1.983Zm-1.442 8.222a6.764 6.764 0 0 0 4.796-1.983 1.562 1.562 0 1 0-2.21-2.21 3.661 3.661 0 0 1-5.172 0 3.662 3.662 0 0 1 0-5.173l5.168-5.167a3.66 3.66 0 0 1 5.172 0 1.562 1.562 0 1 0 2.21-2.21 6.79 6.79 0 0 0-9.592 0l-5.169 5.168a6.79 6.79 0 0 0 0 9.592 6.763 6.763 0 0 0 4.797 1.983Z"/>
  </g>
  <defs>
    <clipPath id="a">
      <path fill="#fff" d="M0 0h25v25H0z"/>
    </clipPath>
  </defs>
</svg>
