<svg xmlns="http://www.w3.org/2000/svg" width="13" height="15" fill="none" viewBox="0 0 13 15">
  <path fill="currentColor" d="M10.875 5.265v-.89a4.375 4.375 0 1 0-8.75 0v.89A3.125 3.125 0 0 0 .25 8.125v3.75A3.129 3.129 0 0 0 3.375 15h6.25a3.129 3.129 0 0 0 3.125-3.125v-3.75a3.125 3.125 0 0 0-1.875-2.86Zm-7.5-.89a3.125 3.125 0 0 1 6.25 0V5h-6.25v-.625Zm8.125 7.5a1.875 1.875 0 0 1-1.875 1.875h-6.25A1.875 1.875 0 0 1 1.5 11.875v-3.75A1.875 1.875 0 0 1 3.375 6.25h6.25A1.875 1.875 0 0 1 11.5 8.125v3.75Z"/>
</svg>
