<svg xmlns="http://www.w3.org/2000/svg" width="15" height="15" fill="none" viewBox="0 0 15 15">
  <g clip-path="url(#a)">
    <path fill="currentColor" d="M1.144 1.138 1.8.568a1.935 1.935 0 0 1 2.738 0 362.38 362.38 0 0 1 1.175 1.526c.712.75.712 1.931 0 2.675l-.725.912c.912 2.07 2.33 3.494 4.33 4.344l.913-.731a1.929 1.929 0 0 1 2.675 0s1.506 1.156 1.525 1.175c.757.756.757 1.981.032 2.706l-.625.719a3.83 3.83 0 0 1-2.738 1.112c-4.775 0-11.1-6.33-11.1-11.1a3.84 3.84 0 0 1 1.144-2.762v-.006ZM11.1 13.75c.713 0 1.369-.262 1.819-.719l.625-.718a.688.688 0 0 0 .025-.944s-1.494-1.15-1.513-1.169a.707.707 0 0 0-.968 0c-.02.019-1.275 1.025-1.275 1.025a.62.62 0 0 1-.613.094C6.613 10.33 4.756 8.48 3.688 5.813a.63.63 0 0 1 .093-.625S4.788 3.925 4.8 3.913a.683.683 0 0 0 0-.97 361.99 361.99 0 0 1-1.169-1.512c-.268-.243-.687-.237-.975.05L2 2.051a2.592 2.592 0 0 0-.75 1.85c0 4.35 6.106 9.85 9.85 9.85Z"/>
  </g>
  <defs>
    <clipPath id="a">
      <path fill="currentColor" d="M15 0H0v15h15z"/>
    </clipPath>
  </defs>
</svg>
