<svg xmlns="http://www.w3.org/2000/svg" width="20" height="20" fill="none" viewBox="0 0 20 20">
  <g clip-path="url(#a)">
    <path fill="#4280EF" d="M18.333 7.5h-1.666c-.92 0-1.667.747-1.667 1.666v1.667c0 .92.748 1.667 1.667 1.667h1.666c.92 0 1.667-.748 1.667-1.667V9.166c0-.919-.747-1.666-1.667-1.666Zm0 3.333h-1.666V9.166h1.666v1.667Zm0-10h-1.666C15.747.833 15 1.581 15 2.5v1.666c0 .92.748 1.667 1.667 1.667h1.666c.92 0 1.667-.747 1.667-1.667V2.5c0-.92-.747-1.667-1.667-1.667Zm0 3.333h-1.666V2.5h1.666v1.666Zm0 10h-1.666c-.92 0-1.667.748-1.667 1.667V17.5c0 .919.748 1.666 1.667 1.666h1.666c.92 0 1.667-.747 1.667-1.666v-1.667c0-.92-.747-1.667-1.667-1.667Zm0 3.334h-1.666v-1.667h1.666V17.5Zm-5-.834a.833.833 0 0 1-.833.834h-5C3.365 17.5 0 14.136 0 10s3.365-7.5 7.5-7.5h3.342L9.787 1.416A.832.832 0 1 1 10.976.25l1.875 1.91a1.666 1.666 0 0 1-.006 2.351l-1.87 1.905a.83.83 0 0 1-1.178.012.833.833 0 0 1-.011-1.178l1.062-1.084H7.5A5.84 5.84 0 0 0 1.666 10a5.84 5.84 0 0 0 5.833 5.833h5c.46 0 .833.373.833.833h.001Z"/>
  </g>
  <defs>
    <clipPath id="a">
      <path fill="#fff" d="M0 0h20v20H0z"/>
    </clipPath>
  </defs>
</svg>
