<svg xmlns="http://www.w3.org/2000/svg" width="11" height="15" fill="none" viewBox="0 0 11 15">
  <path fill="currentColor" d="M5.5 11.875a.937.937 0 0 1-.937-.938c0-1.21.845-2.318 2.443-3.198 1.19-.657 1.807-1.957 1.569-3.314a3.129 3.129 0 0 0-2.5-2.5A3.14 3.14 0 0 0 2.372 4.76a.938.938 0 0 1-1.87-.142 5.003 5.003 0 0 1 1.92-3.563A4.992 4.992 0 0 1 6.399.08c2.015.353 3.67 2.008 4.023 4.023a5.028 5.028 0 0 1-2.51 5.28c-.923.507-1.473 1.09-1.473 1.555 0 .518-.42.938-.938.938Zm-.937 2.187a.938.938 0 1 0 1.875 0 .938.938 0 0 0-1.875 0Z"/>
</svg>
