<svg xmlns="http://www.w3.org/2000/svg" width="20" height="20" fill="none" viewBox="0 0 20 20">
  <g clip-path="url(#a)">
    <path fill="currentColor" d="M16.667 4.25v-.083A4.171 4.171 0 0 0 12.5 0h-5a4.171 4.171 0 0 0-4.167 4.167v3.417A4.174 4.174 0 0 0 0 11.667v4.166A4.171 4.171 0 0 0 4.167 20h11.666A4.171 4.171 0 0 0 20 15.833v-7.5a4.173 4.173 0 0 0-3.333-4.082Zm-12.5 11.583h-.834a.833.833 0 1 1 0-1.666h.834a.833.833 0 1 1 0 1.666Zm0-3.333h-.834a.833.833 0 1 1 0-1.667h.834a.833.833 0 1 1 0 1.667Zm4.166 3.333H7.5a.833.833 0 1 1 0-1.666h.833a.833.833 0 1 1 0 1.666Zm0-3.333H7.5a.833.833 0 1 1 0-1.667h.833a.833.833 0 1 1 0 1.667Zm0-3.333H7.5a.833.833 0 1 1 0-1.667h.833a.833.833 0 1 1 0 1.667Zm0-3.334H7.5a.833.833 0 1 1 0-1.666h.833a.833.833 0 1 1 0 1.666Zm4.167 10h-.833a.833.833 0 1 1 0-1.666h.833a.833.833 0 1 1 0 1.666Zm0-3.333h-.833a.833.833 0 1 1 0-1.667h.833a.833.833 0 1 1 0 1.667Zm0-3.333h-.833a.833.833 0 1 1 0-1.667h.833a.833.833 0 1 1 0 1.667Zm0-3.334h-.833a.833.833 0 1 1 0-1.666h.833a.833.833 0 1 1 0 1.666Zm4.167 10h-.834a.833.833 0 1 1 0-1.666h.834a.833.833 0 1 1 0 1.666Zm0-3.333h-.834a.833.833 0 1 1 0-1.667h.834a.833.833 0 1 1 0 1.667Zm0-3.333h-.834a.833.833 0 1 1 0-1.667h.834a.833.833 0 1 1 0 1.667Z"/>
  </g>
  <defs>
    <clipPath id="a">
      <path fill="currentColor" d="M0 0h20v20H0z"/>
    </clipPath>
  </defs>
</svg>
