<svg xmlns="http://www.w3.org/2000/svg" width="25" height="25" fill="none" viewBox="0 0 25 25">
  <g clip-path="url(#a)">
    <path fill="currentColor" d="M24.39 16.76s-9.098-4.135-9.13-4.145a2.072 2.072 0 0 0-2.149.498c-.566.567-.757 1.39-.46 2.241l4.108 9.037c.166.365.527.603.93.61h.02c.393 0 .755-.223.932-.576l1.928-3.856 3.856-1.928a1.042 1.042 0 0 0-.034-1.88h-.001Zm-5.064 2.1a1.044 1.044 0 0 0-.466.466l-1.108 2.217-3.17-6.954 6.959 3.164-2.214 1.106-.001.001Zm-5.876 4.015c-.18.016-.36.027-.542.034-.695-.688-2.51-2.622-3.775-5.2h.763a1.041 1.041 0 1 0 0-2.083H8.302a10.69 10.69 0 0 1-.49-3.125c0-1.083.188-2.132.492-3.125h8.393c.123.403.227.816.307 1.237a1.04 1.04 0 1 0 2.046-.39 13.226 13.226 0 0 0-.19-.847h3.574a10.374 10.374 0 0 1 .437 4.074 1.042 1.042 0 0 0 2.075.188c.033-.374.05-.754.05-1.136C25 5.607 19.394 0 12.5 0S0 5.607 0 12.5 5.607 25 12.499 25c.382 0 .76-.018 1.133-.051a1.042 1.042 0 0 0-.183-2.075l.001.001Zm-7.312-7.249H2.562a10.375 10.375 0 0 1-.479-3.126c0-1.088.168-2.139.48-3.126h3.574c-.256.995-.409 2.04-.409 3.125 0 1.084.152 2.13.409 3.125v.002Zm3-8.333c1.064-2.164 2.516-3.88 3.364-4.78.849.9 2.301 2.612 3.365 4.78H9.139Zm12.38 0h-3.362c-.824-1.965-1.966-3.634-2.95-4.851a10.465 10.465 0 0 1 6.313 4.85ZM9.793 2.442c-.984 1.217-2.127 2.886-2.95 4.85h-3.36a10.453 10.453 0 0 1 6.31-4.85Zm-6.31 15.266h3.36c.823 1.965 1.966 3.633 2.95 4.85a10.466 10.466 0 0 1-6.31-4.85Z"/>
  </g>
  <defs>
    <clipPath id="a">
      <path fill="#fff" d="M0 0h25v25H0z"/>
    </clipPath>
  </defs>
</svg>
