<svg xmlns="http://www.w3.org/2000/svg" width="15" height="15" fill="none" viewBox="0 0 15 15">
  <g clip-path="url(#a)">
    <path fill="currentColor" fill-rule="evenodd" d="M7.5 0a7.5 7.5 0 1 0 0 15 7.5 7.5 0 0 0 0-15Zm3.476 5.1c-.112 1.186-.601 4.064-.85 5.393-.104.562-.312.75-.512.768-.435.04-.766-.288-1.188-.564-.66-.433-1.033-.702-1.673-1.124-.741-.489-.261-.757.16-1.195.111-.115 2.03-1.86 2.068-2.019.004-.02.009-.093-.035-.132-.045-.039-.11-.026-.155-.015-.067.015-1.121.712-3.164 2.09-.3.206-.57.306-.814.301-.267-.005-.782-.151-1.165-.276-.47-.153-.844-.234-.811-.493.017-.135.202-.273.557-.414a385.62 385.62 0 0 1 4.374-1.884c2.083-.867 2.516-1.017 2.798-1.022.354-.005.439.287.41.587Z" clip-rule="evenodd"/>
  </g>
  <defs>
    <clipPath id="a">
      <path fill="currentColor" d="M0 0h15v15H0z"/>
    </clipPath>
  </defs>
</svg>
