<svg xmlns="http://www.w3.org/2000/svg" width="25" height="25" fill="none" viewBox="0 0 25 25">
  <g clip-path="url(#a)">
    <path fill="currentColor" d="M15.208 22.188c-.312.235-.645.483-.927.729h2.386a1.042 1.042 0 1 1 0 2.083H12.5a1.041 1.041 0 0 1-1.042-1.042c0-1.562 1.328-2.558 2.5-3.437.781-.586 1.667-1.25 1.667-1.771a1.042 1.042 0 1 0-2.083 0 1.042 1.042 0 1 1-2.084 0 3.125 3.125 0 1 1 6.25 0c0 1.563-1.328 2.558-2.5 3.438Zm8.75-6.563a1.042 1.042 0 0 0-1.041 1.042v3.125h-1.042a1.042 1.042 0 0 1-1.042-1.042v-2.083a1.042 1.042 0 0 0-2.083 0v2.083a3.125 3.125 0 0 0 3.125 3.125h1.042v2.083a1.042 1.042 0 0 0 2.083 0v-7.291a1.042 1.042 0 0 0-1.042-1.042ZM13.542 12.5V7.292a1.041 1.041 0 1 0-2.084 0v4.166H8.333a1.042 1.042 0 0 0 0 2.084H12.5a1.042 1.042 0 0 0 1.042-1.042ZM23.958 2.083a1.042 1.042 0 0 0-1.041 1.042v2.473a12.5 12.5 0 1 0-14.963 18.55 1.042 1.042 0 1 0 .758-1.942A10.417 10.417 0 1 1 21.496 7.292H18.75a1.042 1.042 0 0 0 0 2.083h3.125A3.125 3.125 0 0 0 25 6.25V3.125a1.041 1.041 0 0 0-1.042-1.042Z"/>
  </g>
  <defs>
    <clipPath id="a">
      <path fill="#fff" d="M0 0h25v25H0z"/>
    </clipPath>
  </defs>
</svg>
