<svg xmlns="http://www.w3.org/2000/svg" width="15" height="15" fill="none" viewBox="0 0 15 15">
  <path fill="currentColor" d="M11.11 13.334A2.509 2.509 0 0 1 8.747 15H2.503a2.51 2.51 0 0 1-1.902-.874 2.463 2.463 0 0 1-.573-1.973c.253-1.687 1.178-3.25 2.75-4.653C1.206 6.096.281 4.534.028 2.848A2.462 2.462 0 0 1 .6.874 2.508 2.508 0 0 1 2.503 0h6.244c1.06 0 2.01.67 2.363 1.666a.624.624 0 1 1-1.177.418 1.258 1.258 0 0 0-1.185-.834H2.503c-.367 0-.715.16-.955.44a1.196 1.196 0 0 0-.284.971C1.5 4.223 2.466 5.686 4.139 7.01a.624.624 0 0 1 0 .98c-1.672 1.324-2.64 2.786-2.873 4.348-.054.353.047.698.283.973.24.278.588.439.955.439h6.244c.533 0 1.008-.335 1.185-.833a.624.624 0 1 1 1.178.418v-.001ZM6.016 8.715l.318.253c.732.583 1.704 1.52 2.171 2.672a.625.625 0 0 1-.58.86h-4.6a.627.627 0 0 1-.58-.859c.466-1.158 1.437-2.091 2.17-2.67l.324-.257c.228-.18.55-.18.777.001Zm-.391 1.287a7.055 7.055 0 0 0-1.229 1.248h2.455a7.207 7.207 0 0 0-1.226-1.248ZM15 7.502a3.754 3.754 0 0 1-3.75 3.75A3.754 3.754 0 0 1 7.5 7.5a3.754 3.754 0 0 1 3.75-3.75A3.754 3.754 0 0 1 15 7.5Zm-1.25 0c0-1.38-1.121-2.5-2.5-2.5a2.503 2.503 0 0 0-2.5 2.5c0 1.378 1.121 2.5 2.5 2.5s2.5-1.122 2.5-2.5Zm-1.875-.26v-.99a.625.625 0 1 0-1.25 0V7.5c0 .165.066.325.183.441l.625.626a.623.623 0 0 0 .884 0 .624.624 0 0 0 0-.884l-.442-.442Z"/>
</svg>
