<svg xmlns="http://www.w3.org/2000/svg" width="15" height="13" fill="none" viewBox="0 0 15 13">
  <path fill="curretColor" d="M13.125 2.75h-10a1.882 1.882 0 0 1-1.397-.624A1.872 1.872 0 0 1 3.125 1.5h11.25a.625.625 0 1 0 0-1.25H3.125A3.125 3.125 0 0 0 0 3.375v6.25c0 1.726 1.4 3.125 3.125 3.125h10c1.036 0 1.875-.84 1.875-1.875v-6.25c0-1.036-.84-1.875-1.875-1.875Zm.625 8.125c0 .344-.28.625-.625.625h-10A1.877 1.877 0 0 1 1.25 9.625V3.374c.534.4 1.19.626 1.875.626h10c.345 0 .625.28.625.625v6.25ZM12.5 7.75a.625.625 0 1 1-1.25 0 .625.625 0 0 1 1.25 0Z"/>
</svg>
