<svg xmlns="http://www.w3.org/2000/svg" width="15" height="15" fill="none" viewBox="0 0 15 15">
  <g clip-path="url(#a)">
    <path fill="currentColor" fill-rule="evenodd" d="M12.79 2.18A7.385 7.385 0 0 0 7.53 0C3.434 0 .1 3.334.098 7.433c0 1.31.342 2.588.993 3.716L.036 15l3.94-1.034a7.426 7.426 0 0 0 3.552.905h.003c4.096 0 7.43-3.334 7.433-7.433a7.386 7.386 0 0 0-2.175-5.258ZM7.53 13.616a6.162 6.162 0 0 1-3.145-.862l-.225-.133-2.338.613.624-2.28-.147-.234a6.16 6.16 0 0 1-.944-3.288 6.187 6.187 0 0 1 6.18-6.177c1.65 0 3.202.644 4.368 1.811a6.142 6.142 0 0 1 1.807 4.37c-.002 3.408-2.773 6.18-6.178 6.18Zm3.389-4.627c-.186-.093-1.099-.543-1.27-.605-.17-.062-.293-.093-.417.093-.125.185-.48.604-.589.729-.108.123-.216.139-.402.046-.186-.093-.784-.289-1.494-.922a5.591 5.591 0 0 1-1.033-1.287c-.108-.186-.011-.286.081-.379.084-.083.186-.216.279-.325.094-.108.124-.185.187-.31.062-.123.031-.232-.016-.325s-.418-1.007-.572-1.379c-.15-.363-.304-.313-.418-.319A7.16 7.16 0 0 0 4.899 4a.68.68 0 0 0-.495.232c-.17.187-.65.636-.65 1.55s.666 1.797.759 1.921c.092.124 1.309 2 3.172 2.804.443.192.79.306 1.059.392.445.141.85.121 1.17.074.357-.054 1.098-.45 1.254-.884.155-.433.155-.806.108-.883-.047-.078-.17-.124-.356-.217Z" clip-rule="evenodd"/>
  </g>
  <defs>
    <clipPath id="a">
      <path fill="currentColor" d="M0 0h15v15H0z"/>
    </clipPath>
  </defs>
</svg>
