<svg width="1280" height="536" viewBox="0 0 1280 536" fill="none" xmlns="http://www.w3.org/2000/svg">
<rect width="1280" height="536" fill="black"/>
<mask id="mask0_2064_2" style="mask-type:alpha" maskUnits="userSpaceOnUse" x="-360" y="-372" width="2048" height="1157">
<path d="M147.934 -160.467C208.934 -183.3 171.189 -109.362 227.934 -21.4671C339.374 151.146 148.725 265.315 -44.5112 349.675C-55.6806 436.677 -60.431 511.555 -55.2622 559.366C-54.7594 564.017 -54.0349 568.507 -53.093 572.843C332.26 559.265 1028.86 448.297 1291.07 310.874C794.143 25.7019 410.772 -129.679 264.825 -183.569C183.074 -213.755 175.817 -212.097 264.825 -183.569C374.804 -148.32 631.752 -72.047 1076.74 35.8664C1448.94 126.129 1457.18 223.811 1291.07 310.874C1293.19 312.091 1295.31 313.311 1297.43 314.532C1980.98 707.566 1710.43 869.532 914.238 740.866C424.905 661.79 -12.8171 758.258 -53.093 572.843C-162.14 576.685 -246.263 572.729 -288.566 559.366C-476.198 500.097 -258.765 443.209 -44.5112 349.675C-8.14041 66.3717 96.2933 -345.485 147.934 -369.967C201.934 -395.567 138.434 -171.133 147.934 -160.467Z" fill="#D9D9D9"/>
</mask>
<g mask="url(#mask0_2064_2)">
<path d="M0 0H1280V536H0V0Z" fill="#4280EF"/>
</g>
</svg>
